<svg width="24" height="24" viewBox="0 0 24 24" fill="none" xmlns="http://www.w3.org/2000/svg">
<path d="M0 0.5C0 0.223857 0.223858 0 0.5 0H23.5C23.7761 0 24 0.223858 24 0.5V23.5C24 23.7761 23.7761 24 23.5 24H0.5C0.223857 24 0 23.7761 0 23.5V0.5Z" fill="#121215"/>
<path d="M16.1309 9.24902C16.1629 9.25002 16.1887 9.82221 16.1885 10.5205C16.1883 11.2192 16.167 12.0962 16.1416 12.4697L16.0957 13.1494H15.5225L15.5684 12.4004C15.5935 11.9888 15.635 11.1979 15.6602 10.6426C15.7036 9.68625 15.7151 9.62263 15.8887 9.44141C15.9896 9.33612 16.0988 9.24902 16.1309 9.24902Z" fill="#FAFAFA"/>
<path d="M15.1973 10.1211C15.4732 9.7803 15.4965 9.87987 15.4443 11.1816C15.4171 11.8614 15.3753 12.5841 15.3516 12.7871C15.3136 13.1118 15.2901 13.1531 15.1572 13.1348C15.0152 13.115 15.0057 13.0662 14.9844 12.2783C14.9516 11.0653 15.0233 10.3361 15.1973 10.1211Z" fill="#FAFAFA"/>
<path d="M8.33203 9.78906C8.2824 9.47656 8.35605 9.46073 8.61816 9.72656C8.79655 9.90744 8.81917 9.99406 8.88086 10.7188C8.91805 11.1555 8.94955 11.8341 8.9502 12.2266L8.95117 12.9404H8.7373C8.46649 12.9404 8.46873 12.9497 8.41602 11.3389C8.3928 10.6304 8.35489 9.93272 8.33203 9.78906Z" fill="#FAFAFA"/>
<path d="M14.7676 10.6426C14.8165 10.6429 14.8288 10.7227 14.8008 10.8594C14.7761 10.9791 14.7548 11.4886 14.7539 11.9912L14.7529 12.9053L14.6152 12.7314C14.4916 12.575 14.4824 12.4749 14.5195 11.7217C14.5604 10.8918 14.6177 10.6426 14.7676 10.6426Z" fill="#FAFAFA"/>
<path d="M9.07617 10.2246C9.11716 10.2246 9.17534 10.2796 9.20508 10.3467C9.23472 10.4157 9.27281 10.9556 9.29004 11.5479C9.31632 12.4499 9.30303 12.6492 9.20996 12.7656C9.10742 12.8939 9.09876 12.8415 9.09668 12.0977C9.09539 11.6534 9.07336 11.0499 9.04785 10.7568C9.01738 10.4061 9.02722 10.225 9.07617 10.2246Z" fill="#FAFAFA"/>
<path d="M9.52441 10.6768C9.5654 10.7014 9.5957 11.0606 9.5957 11.5166C9.5957 12.0013 9.56798 12.3135 9.52441 12.3135C9.48067 12.3131 9.45312 11.9868 9.45312 11.4736C9.45313 10.9321 9.47821 10.6496 9.52441 10.6768Z" fill="#FAFAFA"/>
<path d="M14.0977 11.5137C14.1102 11.6572 14.0917 11.8029 14.0566 11.8369C14.0195 11.8723 13.9534 11.825 13.8975 11.7236C13.8127 11.5698 13.8169 11.5308 13.9375 11.4004L14.0752 11.2529L14.0977 11.5137Z" fill="#FAFAFA"/>
<path d="M10.0977 11.2344C10.137 11.258 10.1698 11.3202 10.1699 11.373C10.1699 11.426 10.1371 11.489 10.0977 11.5127C10.057 11.537 10.0264 11.4767 10.0264 11.373C10.0264 11.2694 10.0569 11.2099 10.0977 11.2344Z" fill="#FAFAFA"/>
<path fill-rule="evenodd" clip-rule="evenodd" d="M23.5 0C23.7761 0 24 0.223858 24 0.5V23.5C24 23.7761 23.7761 24 23.5 24H0.5C0.223858 24 8.05324e-09 23.7761 0 23.5V0.5C0 0.223858 0.223858 8.05317e-09 0.5 0H23.5ZM10.0527 2.57812C9.43308 3.55327 9.47561 3.24511 9.54297 6.28223L9.60254 8.98926L10.0635 9.50195C10.3483 9.81924 10.5073 10.0538 10.4824 10.1182C10.4221 10.2709 10.2364 10.1507 9.83691 9.70117C9.65008 9.49091 9.45955 9.31934 9.41406 9.31934C9.31931 9.31868 9.05062 9.04982 9.07617 8.98145C9.08599 8.95673 9.06451 8.93652 9.02832 8.93652C8.99158 8.9356 8.84259 8.77876 8.69629 8.58789C8.54953 8.39641 8.22126 8.03199 7.9668 7.77832L7.50391 7.31738L7.35742 4.85352C7.24923 3.03123 7.18558 2.36363 7.11328 2.28809C7.03884 2.21073 6.87366 2.19216 6.4248 2.20898C6.09957 2.2211 5.10431 2.25165 4.21289 2.27734C3.01478 2.31181 2.56082 2.34847 2.47461 2.41797C2.3773 2.49658 2.3584 2.67087 2.3584 3.47168V4.43066L3.23633 4.47461C3.71902 4.4987 4.45237 4.52568 4.86621 4.53418L5.61914 4.54883L5.66016 3.57422L3.29004 3.62109V3.40723C3.2901 3.24251 3.32665 3.18625 3.45117 3.16016C3.78042 3.09129 6.05103 2.99612 6.10742 3.04883C6.13977 3.08311 6.24454 4.08892 6.33984 5.28809C6.43525 6.48857 6.52863 7.53592 6.54785 7.61719C6.56684 7.69622 6.91145 8.07691 7.31348 8.46289L8.04395 9.16504L8.13672 9.81641C8.18746 10.1748 8.25102 11.0243 8.27832 11.7041L8.32812 12.9404H6.07812C4.84046 12.9408 3.71412 12.9584 3.57617 12.9785C3.43834 12.9986 3.28698 12.9899 3.24023 12.959C3.17827 12.9178 3.13586 12.0116 3.08398 9.63184C3.04472 7.83362 3.02438 6.3503 3.03906 6.33594C3.05368 6.32166 3.39972 6.29363 3.80762 6.27344C4.49755 6.23918 4.54969 6.24624 4.55664 6.36816C4.56078 6.44287 4.58692 7.51883 4.61426 8.76172L4.66406 11.0254L4.83008 11.0811C5.02091 11.1451 5.48262 11.0437 5.46191 10.9424C5.45424 10.8997 5.42451 9.64275 5.39648 8.14453C5.36832 6.64297 5.32394 5.40141 5.29785 5.38574C5.26618 5.37012 4.55816 5.35201 3.71973 5.3457L2.18945 5.33398L2.19531 6.09082C2.22283 9.57642 2.31736 13.7754 2.36816 13.7754C2.40214 13.7758 2.42958 13.8232 2.42969 13.8809C2.42969 13.9743 2.78194 13.9815 5.49121 13.9395L8.55371 13.8916L8.41602 14.0947C8.34035 14.2064 7.89367 14.8775 7.42383 15.5859C6.95394 16.2945 6.56169 16.8826 6.55273 16.8926C6.53445 16.902 5.81574 16.8726 4.94727 16.8271L3.35645 16.7441L3.39746 15.3428L3.64355 15.3193C3.77878 15.3068 3.9962 15.3161 4.12695 15.3398C4.35262 15.381 4.36523 15.3988 4.36523 15.6846C4.36523 15.9784 4.37151 15.9872 4.63379 16.0293C5.11318 16.1063 5.42106 16.0812 5.46777 15.9629C5.52388 15.8197 5.52248 15.1643 5.46484 14.6982C5.42062 14.3406 5.28872 14.211 5.19922 14.4375C5.16424 14.5254 4.93221 14.542 3.73047 14.542C2.07976 14.542 2.20778 14.4706 2.29492 15.3428C2.32552 15.6493 2.37234 16.2953 2.39941 16.7783L2.44922 17.6562L2.92285 17.7002C3.18363 17.7241 4.2447 17.7439 5.28027 17.7441L7.16309 17.7451L7.22852 17.5781C7.31444 17.3585 9.34389 14.4671 9.62695 14.1611C9.86556 13.9033 10.2991 13.7365 10.2227 13.9316C10.1993 13.9908 9.85231 14.4525 9.45215 14.957L8.72461 15.874L8.74121 18.3711H2.09375L2.04688 19.0508C2.02145 19.4244 2.00021 20.1921 2 20.7568V21.7832H4.15234C5.9615 21.7832 6.31036 21.7671 6.34375 21.6826C6.36541 21.627 6.35637 21.4158 6.32324 21.2129L6.2627 20.8438L4.65137 20.8037C3.7685 20.7821 3.0322 20.759 3.01074 20.752C2.97369 20.7354 3.05672 19.4848 3.09766 19.4404C3.11485 19.4238 4.6824 19.3909 6.58105 19.3672L10.0332 19.3242L9.99609 18.9697C9.97546 18.7749 9.94168 18.1137 9.9209 17.501C9.88789 16.5267 9.89835 16.3597 10.0078 16.168C10.0768 16.0474 10.5191 15.5139 10.9902 14.9834C11.4613 14.453 11.8595 14.0035 11.875 13.9844C11.8904 13.9652 11.9892 14.0467 12.0938 14.165C12.1986 14.2839 12.6873 14.8312 13.1797 15.3818L14.0752 16.3838V17.5693C14.0752 18.2212 14.048 18.9351 14.0156 19.1553L13.957 19.5557L16.6318 19.5645C18.1028 19.5695 19.6776 19.5925 20.1309 19.6162L20.9541 19.6592L20.9756 20.3037C20.9869 20.657 20.9868 20.9522 20.9756 20.9609C20.9642 20.9679 20.2286 20.991 19.3418 21.0127L17.7295 21.0527L17.6826 21.4697C17.657 21.6995 17.6518 21.9037 17.6709 21.9229C17.6907 21.942 18.6722 21.9668 19.8525 21.9785L22 22L21.958 18.6152L15.249 18.5791L15.2754 16.0693L14.5137 15.1006C14.0949 14.568 13.7529 14.1141 13.7529 14.0928C13.7538 13.9875 14.112 14.0743 14.2725 14.2188C14.5064 14.4295 16.7627 17.6528 16.7627 17.7764C16.7629 17.8275 16.8164 17.8887 16.8818 17.9131C16.949 17.9375 18.0285 17.9365 19.2822 17.9102L21.5635 17.8623V17.7041C21.5636 17.6165 21.6124 16.9615 21.6719 16.248C21.7315 15.5341 21.7542 14.9053 21.7227 14.8506C21.6763 14.7709 21.3848 14.7469 20.2461 14.7305C18.9955 14.7124 18.8193 14.6957 18.7588 14.5908C18.7211 14.5254 18.6643 14.4717 18.6328 14.4717C18.5572 14.4717 18.4702 15.787 18.5273 16.0654C18.5677 16.2612 18.5974 16.2819 18.832 16.2783C18.975 16.2761 19.2207 16.2517 19.3779 16.2246C19.6591 16.1761 19.6631 16.1711 19.6396 15.9062C19.61 15.572 19.6878 15.519 20.209 15.5176L20.6113 15.5166L20.6592 16.1875C20.6858 16.5549 20.6903 16.8729 20.6689 16.8965C20.6219 16.9422 17.5353 17.1175 17.4697 17.0781C17.4055 17.0385 15.5509 14.2385 15.5439 14.1709C15.5439 14.1452 15.689 14.124 15.8662 14.124C16.1051 14.124 16.1895 14.1512 16.1895 14.2285C16.1896 14.2858 16.2378 14.333 16.2969 14.333C16.3558 14.3328 16.4043 14.2803 16.4043 14.2168C16.4045 14.1104 16.6094 14.1052 18.9834 14.1465C21.168 14.1846 21.5632 14.1762 21.5635 14.0938C21.5635 14.0401 21.5958 13.9855 21.6348 13.9727C21.6782 13.9546 21.7195 13.1156 21.7422 11.791C21.7626 10.6038 21.7957 8.70789 21.8154 7.57812L21.8516 5.52441L20.2959 5.54102C19.4404 5.55049 18.7182 5.5825 18.6914 5.61133C18.6647 5.64929 18.6259 6.93208 18.6045 8.46973L18.5654 11.2754L19.333 11.2344L19.375 9.04102C19.3984 7.83462 19.4352 6.76063 19.457 6.65527L19.4971 6.46387H20.1299C20.4782 6.46387 20.8175 6.48442 20.8828 6.50879C20.9907 6.54952 20.9979 6.74041 20.959 8.64941C20.9355 9.80275 20.8972 11.2876 20.874 11.9482L20.832 13.1494H16.335L16.418 8.93652L16.8799 8.49023C17.134 8.24508 17.3728 7.98899 17.4102 7.9209C17.4477 7.85208 17.5611 6.7842 17.6621 5.54688C17.7627 4.31336 17.8693 3.2794 17.8994 3.24316C17.95 3.19331 20.4204 3.30703 20.6143 3.36816C20.6635 3.38397 20.7041 3.49447 20.7041 3.61426V3.83203L19.5205 3.80762C18.5571 3.78764 18.3442 3.80045 18.374 3.87598C18.3942 3.92693 18.4101 4.15722 18.4102 4.3877V4.80664L18.8945 4.76758C19.1607 4.74564 19.8845 4.70775 20.5029 4.68359L21.6279 4.63965L21.6494 3.70117C21.6689 2.8603 21.6572 2.75107 21.5381 2.64648C21.4262 2.54843 21.1633 2.52321 19.8896 2.48633C19.0563 2.46217 18.0648 2.43106 17.6865 2.41699C16.8324 2.38519 16.7627 2.427 16.7627 2.96973C16.7626 3.43365 16.565 6.78303 16.5117 7.22656C16.478 7.50607 16.4017 7.61111 15.7402 8.28418C15.3367 8.695 14.7684 9.2838 14.4775 9.59277C14.0085 10.0909 13.6811 10.2942 13.6807 10.0879C13.6807 10.0509 13.908 9.77038 14.1855 9.46484L14.6904 8.90918L14.6504 7.91309C14.6282 7.36528 14.5939 5.89801 14.5742 4.65332C14.5547 3.40908 14.5211 2.33799 14.5 2.27246C14.4789 2.20742 14.4068 2.1392 14.3398 2.12109C14.2711 2.10297 13.3627 2.06815 12.3193 2.04395L10.4199 2L10.0527 2.57812Z" fill="#FAFAFA"/>
</svg>
